PathFileType	4	(X/Y/Z)	OpenSim_Sub03_EMGStiffKnee_Magnet.trc
DataRate	CameraRate	NumFrames	NumMarkers	Units	OrigDataRate	OrigDataStartFrame	OrigNumFrames
100	100	23	8	m	100	1900	7597
Frame#	Time	torso_imu_offset_imu	pelvis_imu_offset_imu	tibia_r_imu_offset_imu	femur_r_imu_offset_imu	tibia_l_imu_offset_imu	femur_l_imu_offset_imu	toes_r_imu_offset_imu	toes_l_imu_offset_imu
				X1	Y1	Z1	X2	Y2	Z2	X3	Y3	Z3	X4	Y4	Z4	X5	Y5	Z5	X6	Y6	Z6	X7	Y7	Z7	X8		Y8	Z8	

1900	18.99000000	-0.86803650	-0.24126580	0.26223160	-0.69668822	0.19885741	-0.61399595	-0.56835929	-0.57603595	-0.06424105	-0.86930191	-0.09503182	-0.02495988	-0.62291873	0.48211507	0.23960610	-0.65834717	0.39762152	0.32252932	-0.70213550	-0.22134180	-0.31017273	-0.73828150	-0.20424477	-0.30060645
1901	19	-0.87111796	-0.24017375	0.26140368	-0.69604048	0.18573452	-0.62104865	-0.58551860	-0.55720326	-0.05692329	-0.86956549	-0.09807026	-0.01680747	-0.62062653	0.48681041	0.24422634	-0.65351169	0.40176067	0.32606404	-0.70487235	-0.20002128	-0.31621232	-0.74202663	-0.20226565	-0.29803182
1902	19.01000000	-0.86921886	-0.24097251	0.25840152	-0.69266314	0.18310718	-0.62525294	-0.60966295	-0.53686054	-0.05551122	-0.86623018	-0.09742119	-0.02360265	-0.61789316	0.49228576	0.24394000	-0.65262755	0.41025908	0.32687074	-0.70610115	-0.18134276	-0.32639949	-0.74320798	-0.20877003	-0.29527292
1903	19.02000000	-0.86724167	-0.23814000	0.26449597	-0.68970900	0.18035359	-0.62990416	-0.62559897	-0.51694301	-0.05235124	-0.87075748	-0.09974265	-0.02429260	-0.61582402	0.49577242	0.24301811	-0.65181889	0.41260873	0.33072987	-0.70457931	-0.15563631	-0.33828269	-0.74389639	-0.20612021	-0.30401414
1904	19.03000000	-0.86798910	-0.24392953	0.26642764	-0.68689823	0.18196982	-0.62640161	-0.64111963	-0.50033251	-0.05563569	-0.86766467	-0.10133011	-0.02278673	-0.61765941	0.49273349	0.23562828	-0.64712537	0.41469983	0.32866050	-0.70578230	-0.13860895	-0.34960318	-0.74988875	-0.19760874	-0.29384656
1905	19.04000000	-0.86618806	-0.23906933	0.26791141	-0.69039201	0.17813950	-0.63092362	-0.65690943	-0.48094841	-0.05441664	-0.86685058	-0.10193872	-0.02811203	-0.60858384	0.50285325	0.24050860	-0.64751049	0.42271319	0.32736752	-0.69746240	-0.11686769	-0.36603776	-0.74602308	-0.19923126	-0.29076736
1906	19.05000000	-0.86572919	-0.23567096	0.26689757	-0.68835363	0.17862795	-0.62938136	-0.66418434	-0.45922171	-0.05465074	-0.86627424	-0.10636825	-0.02753285	-0.60501330	0.50832106	0.24385070	-0.63911547	0.43035029	0.33481016	-0.69560209	-0.09712511	-0.38065894	-0.75234819	-0.20412339	-0.29792166
1907	19.06000000	-0.86528589	-0.23644553	0.26577453	-0.68676708	0.17220629	-0.63026751	-0.67795923	-0.44167245	-0.05955206	-0.86552259	-0.10682005	-0.01154067	-0.60526113	0.51460634	0.24097948	-0.63391564	0.43471751	0.33291092	-0.68993666	-0.08307614	-0.39042093	-0.75105598	-0.19670705	-0.29444250
1908	19.07000000	-0.86888871	-0.23726847	0.26749558	-0.68343935	0.17307229	-0.63599497	-0.69755298	-0.42394304	-0.06564576	-0.86381482	-0.11148452	-0.01124455	-0.59837368	0.52232582	0.23915815	-0.63138774	0.43114866	0.33097171	-0.68534694	-0.06823038	-0.40821857	-0.75645269	-0.19582018	-0.28406403
1909	19.08000000	-0.86886231	-0.24165195	0.27021176	-0.68250811	0.17237765	-0.63929710	-0.70418309	-0.40414824	-0.06472756	-0.86355511	-0.11638543	-0.00748945	-0.59909083	0.52918548	0.24347654	-0.62416675	0.44332707	0.33028389	-0.67453522	-0.05652334	-0.41954701	-0.75892949	-0.19550910	-0.28417277
1910	19.09000000	-0.86566866	-0.23044902	0.26982981	-0.68004101	0.16703482	-0.63762267	-0.70671361	-0.39041586	-0.06953225	-0.86087284	-0.12292212	-0.00751044	-0.59566911	0.53213117	0.24082020	-0.62623345	0.44811619	0.32469484	-0.67018346	-0.04702781	-0.43060900	-0.76575238	-0.19429662	-0.27983330
1911	19.10000000	-0.86936408	-0.23223931	0.27315314	-0.68359214	0.16431865	-0.63784962	-0.71674191	-0.37471401	-0.07387531	-0.86449846	-0.13295800	-0.00066311	-0.58720677	0.53747805	0.23808314	-0.62721022	0.45102992	0.32783194	-0.66398121	-0.03314774	-0.44194448	-0.76709930	-0.19654498	-0.26637033
1912	19.11000000	-0.86741833	-0.23011281	0.27637469	-0.68005357	0.16356233	-0.64286338	-0.72503176	-0.36116802	-0.07849235	-0.85856288	-0.13236738	0.00178718	-0.57663834	0.54276178	0.22891264	-0.62115667	0.46049050	0.31471767	-0.65937268	-0.02260771	-0.45381927	-0.76622952	-0.19699401	-0.26646541
1913	19.12000000	-0.86543397	-0.22726841	0.27675634	-0.67559037	0.15447640	-0.64183011	-0.72918115	-0.34691590	-0.07945115	-0.85804934	-0.13665458	0.00740376	-0.57930198	0.54793018	0.23200000	-0.61644865	0.46486908	0.32629299	-0.64978357	-0.01670988	-0.46581508	-0.77480370	-0.19838327	-0.26088794
1914	19.13000000	-0.86675984	-0.22701308	0.27545967	-0.67401623	0.16047125	-0.64238040	-0.72720023	-0.33696284	-0.08535137	-0.85354231	-0.13812555	0.00706092	-0.57411200	0.55844038	0.23095259	-0.61095280	0.46429258	0.32472749	-0.64814564	-0.00778637	-0.47135930	-0.77702884	-0.20259078	-0.25356045
1915	19.14000000	-0.86190487	-0.22228469	0.27170058	-0.67174557	0.15483468	-0.64638409	-0.73202534	-0.33836809	-0.08539566	-0.85488839	-0.14246916	0.01300828	-0.57140399	0.56552943	0.22733669	-0.61432337	0.47084388	0.31618075	-0.64002360	-0.00717273	-0.47557832	-0.77948111	-0.20578589	-0.24007967
1916	19.15000000	-0.86831482	-0.22114436	0.27706120	-0.66893963	0.15259298	-0.65200479	-0.73250656	-0.33540186	-0.08658583	-0.85474653	-0.14651407	0.01960434	-0.56668615	0.56610705	0.23371208	-0.61128534	0.47754923	0.32341421	-0.63787902	-0.00795627	-0.47680596	-0.78475439	-0.20590974	-0.22838124
1917	19.16000000	-0.86931051	-0.21059867	0.27663702	-0.67178820	0.15177239	-0.65035237	-0.73263186	-0.33767790	-0.08356432	-0.85543987	-0.14702623	0.02536451	-0.55247488	0.57924056	0.23259108	-0.60640838	0.47759279	0.33036408	-0.64024108	-0.01138481	-0.47570421	-0.78586881	-0.20930062	-0.22074285
1918	19.17000000	-0.87167417	-0.21394486	0.27800550	-0.67366908	0.14386457	-0.65484850	-0.73303692	-0.34747160	-0.08172642	-0.85611047	-0.14494175	0.03222014	-0.54994426	0.58689238	0.22148068	-0.60887508	0.48163047	0.31647168	-0.64716650	-0.02282126	-0.46761525	-0.78457011	-0.21249539	-0.20635572
1919	19.18000000	-0.87141014	-0.20902432	0.27533108	-0.66887432	0.14547028	-0.65774657	-0.72409823	-0.34958559	-0.06846501	-0.85793483	-0.14579767	0.04083141	-0.54561408	0.59545301	0.22559895	-0.60617821	0.48036394	0.31532387	-0.66240162	-0.03408588	-0.45495550	-0.79051841	-0.21337790	-0.19324877
1920	19.19000000	-0.87247563	-0.21076048	0.28414176	-0.66095183	0.13775793	-0.65495167	-0.72590278	-0.36204496	-0.06179094	-0.85551823	-0.14831984	0.04843670	-0.54086006	0.60329344	0.21888986	-0.60244440	0.48505466	0.31630558	-0.66681948	-0.04445641	-0.44171622	-0.79060601	-0.21222736	-0.18431509
1921	19.20000000	-0.87075564	-0.21278856	0.27316657	-0.66071631	0.13424844	-0.65466378	-0.71891238	-0.37907998	-0.05540126	-0.85199133	-0.14882307	0.04380402	-0.53264842	0.60236309	0.21189262	-0.60428958	0.48642619	0.31338825	-0.67420270	-0.05388638	-0.42145606	-0.79096830	-0.21877713	-0.17259687
1922	19.21000000	-0.87594232	-0.20676695	0.27399362	-0.66357852	0.13345754	-0.66396287	-0.71274994	-0.38844035	-0.04352532	-0.85220302	-0.14842715	0.05293359	-0.52807250	0.61350029	0.20301017	-0.60354728	0.49297326	0.30972904	-0.68370336	-0.07103779	-0.40533666	-0.79277281	-0.21490009	-0.15470591
